<svg id="Layer_4" data-name="Layer 4" xmlns="http://www.w3.org/2000/svg" viewBox="0 0 1000 1000"><defs><style>.cls-1{fill:#fcd268;}.cls-2{fill:#faa31b;}.cls-3{fill:#fff;}</style></defs><ellipse class="cls-1" cx="502.32" cy="494.42" rx="403.19" ry="332.73"/><path class="cls-2" d="M483.55,808.68c-5.81,0-9.17-.14-9.59-.15a7,7,0,0,1,.6-14c.32,0,33.26,1.31,79.47-4.82,42.47-5.64,105.19-18.88,162.81-50,136.64-73.75,157-187.16,157-248.2C873.88,376.9,809,287.68,681,226.35c-83.51-40-173.21-39.3-233.76-31.65-65.76,8.32-112,26.3-112.51,26.48a7,7,0,1,1-5.12-13c1.94-.76,48.4-18.8,115.87-27.33,39.66-5,78.29-5.64,114.83-1.87,45.82,4.73,88.46,16.44,126.74,34.78C762.33,249.79,817.22,296,850.21,351.07c25,41.72,37.67,89,37.67,140.47a284.16,284.16,0,0,1-34.24,135.89c-27.94,51.17-71.73,93.1-130.16,124.63-59.58,32.17-124.21,45.8-167.93,51.58A562.78,562.78,0,0,1,483.55,808.68Z"/><path class="cls-2" d="M272,254a7,7,0,0,1-4.67-12.22A105.2,105.2,0,0,1,286.14,229c10.25-5.47,22-11.3,22.12-11.36a7,7,0,0,1,6.22,12.55c-.12.06-11.68,5.79-21.74,11.16a91.37,91.37,0,0,0-16,10.9A7,7,0,0,1,272,254Z"/><path class="cls-2" d="M349.48,783.32a6.71,6.71,0,0,1-2.28-.39c-2.37-.81-58.48-20.46-115.47-63.59C198.1,693.9,171.27,665.56,152,635.11c-24.26-38.31-36.57-80-36.57-124,0-41,6.77-79.91,20.12-115.71A299.46,299.46,0,0,1,179.86,316c31.94-41,63.61-59.84,64.94-60.62a7,7,0,0,1,7.09,12.07h0c-.31.19-31.07,18.54-61.37,57.65-27.87,36-61.1,97.45-61.1,186.07,0,75.14,37.27,141.43,110.76,197,55.23,41.79,111,61.33,111.59,61.52a7,7,0,0,1-2.29,13.62Z"/><path class="cls-2" d="M384.84,794.31a6.69,6.69,0,0,1-1.92-.27l-15.65-4.45a7,7,0,0,1,3.84-13.47l15.64,4.46a7,7,0,0,1-1.91,13.73Z"/><path class="cls-2" d="M407.27,799.63a6.69,6.69,0,0,1-1.47-.16l-2.31-.49a7,7,0,0,1,2.92-13.69l2.31.49a7,7,0,0,1-1.45,13.85Z"/><path class="cls-2" d="M457.2,807.22a6.62,6.62,0,0,1-.77,0c-.53-.06-13.06-1.44-19.11-2.24a31,31,0,0,0-6.79-.34l.15,0-2.39-13.8c.88-.15,4.27-.58,10.86.28,5.9.78,18.68,2.19,18.81,2.2a7,7,0,0,1-.76,14Z"/><path class="cls-2" d="M812.11,632.34a7,7,0,0,1-5.55-11.27c.39-.5,39-51.62,38.54-114.94-.29-40.78-5.94-67.51-6-67.77a7,7,0,0,1,13.69-3c.24,1.14,6,28.29,6.31,70.63.48,68.26-39.72,121.35-41.44,123.57A7,7,0,0,1,812.11,632.34Z"/><path class="cls-2" d="M207.83,351.83a7,7,0,0,1-6.09-10.44c.81-1.44,20.5-35.72,71.64-69.65,65.93-43.76,163.37-66.65,225.56-66.66h0c82.47,0,127.8,17.12,182.62,48.71a7,7,0,0,1-7,12.13c-52.71-30.37-96.32-46.84-175.63-46.84h0c-60.09,0-154.2,22.1-217.82,64.32-48.36,32.09-67,64.54-67.19,64.87A7,7,0,0,1,207.83,351.83Z"/><path class="cls-2" d="M265.62,355.64c5.11-15.84,10.4-31.66,17.31-46.82,5.95-11.64,18.65-20.2,29.78-26.16,15.54-8.33,21.86-8.35,18.71,1.83-21,64.51-33.57,133.93-40.93,201.28-1.7,13.63-18,12.66-28.16,11-11-1.76-16.56-2.78-27.5-5.09C204,484.13,150.24,463.17,168,421,182.78,385.86,232.26,365.89,265.62,355.64Zm-22.55,89.74q3.62-17.88,7.85-35.64c-12.75.54-33.92,3.22-37.82,16.63C209.11,440.11,233.23,444.68,243.07,445.38Z"/><path class="cls-2" d="M347.37,277.55a32.2,32.2,0,0,1,19.93-21.21c6-2.37,9-3.45,14.76-5.35,9.64-3.17,13-.31,10.39,11-1.59,6.78-2.43,10.54-4.15,18.56-2.33,10.87-7.75,21.58-19.14,24.91-6.05,1.59-9.15,2.47-15.47,4.35-10.52,3.12-14.4-2.25-11.15-14.72C344.49,287.59,345.47,284.05,347.37,277.55Zm9.52,192.52c-1.1,13.53-12.13,18.24-24.28,18.2-11.18,0-24.22-5.67-22.88-18.86C314.3,432,320.87,395,328.19,358c3.27-14.47,14.56-24.48,28.65-28,13.91-3.46,22,6.15,17.9,19.92C367.71,389.8,361,429.81,356.89,470.07Z"/><path class="cls-2" d="M511.5,345.77a71.17,71.17,0,0,1,8.76,5.05,44.83,44.83,0,0,1,6.42,5.68c6.87,9.7,10.49,21.39,11.4,33.12,1.45,18.67-4.49,37.89-16.86,52C504.15,461,479.84,474,456.3,482.14c-19.73,6.79-44.76,11.79-65.49,4.11C376.56,481,370.15,470.53,372,455.59c2.65-21,15.44-33.94,36.46-38,8-1.56,15.86,1.36,23.83,7.19,10,7.3,24.51,4.81,35.53.95,11.93-4.17,17.95-10.36,17.94-19.25,0-4.72-8.58-6.17-26-5.3-2.44-.22-7.9-.64-16.2-1.39a146.23,146.23,0,0,1-18.72-2.69c-13.9-4.51-26.23-10-32.7-24-5.66-12.25-3.5-27.85-1.14-40.68,4-21.64,12.28-41.53,27.93-57.12,13-13,32-21.71,49.72-22.13,15.09-.37,29.33,2.85,42.2,12.3,9.25,6.78,17.53,16.5,19.13,28.27,2.12,15.66-8.78,27.75-23.81,30.07-6.29,1-13.49-1.2-20.13-7.54-8-7.62-19.64-7.76-29-6.66s-15.82,7.39-16.77,16.91c-.49,5,7.16,8.2,22.74,8.75,2.17.54,7,1.48,14.47,2.6,6.89,1,12.51,1.88,16.79,2.67C502,342.16,507.77,343.88,511.5,345.77Z"/><path class="cls-2" d="M631.43,437.65c-15.43,5.47-48.88,13.41-64.84,3.16C546.7,428,551.36,382.05,548.88,360.6c-.7-7.72-1-11.63-1.8-19.43-2.41-31.89-8.8-91.69,40.08-84.37l.1,0,.15.31c36.87,5.57,64.65,37.73,77.13,71.06.06.15.09.22.14.37,3.69,10.19-3,13.16-17.4,11.26-11.46-1.51-22.75-7.84-25.92-19.58-2.87-10.64-8.94-16.79-17.39-17.62h-.1c-.09-.3-.13-.46-.22-.77-15.06,1-8.88,24.76-7.54,33.87,1.33,7,2,10.49,3.18,17.42,1.66,12.33,7.06,32.07,22.57,32.62H622c9-.1,13.52-5.25,11-15.31-3-12,9.73-15.74,18.9-14,11.29,2.17,24.19,7,28.56,19l.11.37c12.24,38.25-8.06,53.33-45,60.25"/><path class="cls-2" d="M816.39,361.19c5.68,8.25,7.85,14.21,11.61,21.19,6.84,15.72,12.8,35.8,3.72,51.53-7.42,12.84-30.5,25.34-43.35,26-66.12,3.61-80.24-52.95-96.28-96.77-2.27-6.2-3.46-9.32-5.92-15.54-8.72-23.33-15.59-81.66,31.12-69.51C762.05,289.77,797.93,330.78,816.39,361.19Zm-82.49-2.87c3.28,5.85,4.88,8.78,7.93,14.62,6.22,12.67,16.19,28.93,31.22,31.68,16.74,3.06,4.45-20.39.9-25.16-3.53-5.57-5.37-8.36-9.14-13.91-8.27-12.26-20.17-28.2-33.91-32.07C718.05,329.85,731.44,353.62,733.9,358.32Z"/><path class="cls-2" d="M330,599.58c4.74,2,8.41,3.76,11,5.19a73.41,73.41,0,0,1,8.11,5.16c7.52,6.23,14.28,17.17,16.65,26.45,3.34,13.09,1.1,28.64-8.59,37.87C345,685.9,321.71,684.79,306,684c-18-1-37.71-3.91-54-10.64-14.5-6-30.07-15.07-40.14-28.77-11.07-15,1.34-23.76,17.05-20.94,9.73,1.74,19.93,6.69,28.7,11.62a90.48,90.48,0,0,0,40,11.08c12.15.54,17.42-4.46,14.52-9-4.6-7.18-21.42-9-31.68-11.19-2.93-.86-9.4-2.72-19.35-5.66-9.13-2.7-16.64-5.12-22.34-7.2-16.07-6.42-33-13.6-43.94-25.8-7.33-8.17-14-18.48-15.27-30.57-1.49-14.67,5.32-29.73,19.8-34.94,20.37-7.31,45.42-4.57,66.31-1.42,20.05,3,40.6,8.14,58.64,18.11,9.49,5.26,20.55,13.07,23.13,24.34,3.77,16.46-14.11,20.29-26.84,19.71-7.83-.36-16.9-3.59-26.66-9.64-12-7.42-25.78-10.45-39.21-12.43-12.57-1.85-20.06,2.71-18.1,7.18,3.05,7,21.42,10.78,30.79,12.81,2.9,1,9.26,3,19,5.72,9,2.5,16.22,4.43,21.69,5.95C318,595.18,325.24,597.52,330,599.58Z"/><path class="cls-2" d="M503.39,575c-.66,6.79-1,10.15-1.74,16.73-4.21,39.46-23.85,71.73-64.43,79.55-39.9,7.68-53.79-21.61-63.72-55.84-1.51-5.94-2.28-8.93-3.82-14.93-4.57-17.48-7.83-40.45,2.56-56.69,11.28-17.62,38.22-23.9,57.11-28.93,18.07-4.81,42.79-11,59.25,1.53C505.66,529.48,505.39,555.78,503.39,575ZM419,592.79c.86,5.9,1.27,8.84,2,14.64,1.13,9.5,4.46,27.9,17.23,25.28S453.87,612.2,453.14,601c-.07-6-.14-9.08-.3-15.24.52-11.9-4.15-30.37-19.72-27C417.86,562.07,416.52,580.21,419,592.79Z"/><path class="cls-2" d="M557.41,616.73c-1.43,6.41-2.1,9.47-3.27,15.2-2,11-14.31,14.09-23.72,14.46-13.87.54-21-2-19.76-10.94,7.1-45,13.71-90,15.64-135.64,1.19-13.86,15.6-22.26,27.82-25.4,9.23-2.81,18.63-5.36,28-7.51,22.92-5.2,60.29-16.2,75.81,4,14.16,18.42,2.31,54.44-3.8,75.83C641.2,592.11,603,614.43,557.41,616.73Zm19.5-92.52c-2.12,13.08-4.66,26.09-7.43,39,14.49-1.13,32.86-7.06,37.28-22.44C611.82,523.23,587.81,521.8,576.91,524.21Z"/><path class="cls-2" d="M716.29,701c-12.08,10.55-13.09,6.93-23.84,3.62s-18.94-3.68-9.8-13.86c9.47-10.56,18.12-21.67,26.55-33.07-9.49-3.76-18.85-8.1-28-12.58-4.17,6.93-6.29,10.27-10.54,16.65-6.35,10.6-18.83,9.77-27.88,3.9-7.56-4.9-16.23-13.76-11.32-23.81,10.76-23.39,20.33-47.13,28.8-71.44,14.45-43.16,13.71-122.64,70.58-108.76,61,14.89,87.18,100.79,60.47,149C771.1,645.23,746,674.24,716.29,701Zm-6.36-113C721,592,732,596,743.19,599.7c4.76-11.71,17.11-42.79-1.27-48.58C725.12,545.82,714.75,576.66,709.93,588Z"/><path class="cls-2" d="M396,743.49c.06,1.84.08,2.81.13,4.82.08,3.37-3.47,4.57-11.4,3.17s-12.15-3.88-12.21-7c.16-15.42.54-19.09.39-28.12.05-1.8,3.83-2.43,10.8-2.13,4.31.2,6.41.27,10.44.36,11.35,0,33.35-.2,35.2,15.25C431.41,746.94,406.27,745.84,396,743.49Zm-1-19.25c.2,2.65.29,4,.46,6.94,9.43,1.12,13.34.17,13.08-2.34S404.2,725,395,724.24Z"/><path class="cls-2" d="M434.58,713c-.32-2.81,1.91-4.43,6.78-4.78l7.35-.52c4.93-.35,7.59,1,7.92,4.13.21,1.85.31,2.77.53,4.61.35,3.07-2,4.67-6.92,4.76l-7.38.13c-4.89.07-7.45-1.32-7.79-4.12C434.88,715.55,434.78,714.71,434.58,713Zm26.64,44.37c.27,4.09-3.46,6.05-11,5.23s-11.22-3.45-11.51-7.27c-.65-11.81-1.15-16.45-2.14-25.39-.25-2.88,3.18-4.21,10.5-4.2s11.36,1.51,11.72,4.73C459.88,740.13,460.44,745.11,461.22,757.39Z"/><path class="cls-2" d="M511.25,724.27q2.63,24,4,48.11c.22,4.79-3.38,7.54-10.93,7.53s-11.39-2.72-11.69-7.39c-.92-15.84-2.19-31.58-4-47.34-6.07.18-9.12.25-15.18.36-5.05.09-7.85-2.3-8.4-7s1.66-7.17,6.58-7.5q26.58-1.53,53.12-3.43c4.8-.31,7.34,2.13,7.8,7.35s-1.65,8.15-6.52,8.47C520.19,723.8,517.23,724,511.25,724.27Z"/><path class="cls-2" d="M539.11,706.43c-.24-3.53,2.08-5.52,6.79-5.94,2.83-.25,4.23-.38,7-.65,4.61-.43,6.88,1.11,7,4.62.1,2.11.16,3.16.28,5.27.2,3.5-1.86,5.52-6.38,6-2.72.28-4.1.42-6.88.68-4.63.43-7.18-1.15-7.46-4.67C539.34,709.61,539.26,708.55,539.11,706.43Zm24.14,48.2c.21,4.2-2.79,7-9.42,7.88s-10.2-1.08-10.54-5.27c-.61-9.88-1.47-19.77-2.4-29.63-.25-3.55,3.18-5.55,10-6.23s10.19.67,10.46,4.28C562,735.31,562.74,745,563.25,754.63Z"/><path class="cls-2" d="M593.94,741.74c4.37-1,6.43-3.21,6.18-6.7s2.85-5.88,9.32-6.4,9.85,1,10.27,4.22l0,.12c1.37,15.41-11.89,23.72-25.26,27v.16h-.05c-17,6-25.63-9.36-25.85-24.26-.15-2.25-.22-3.36-.37-5.56-2.05-15.15,7.73-28.78,23.38-29.78h0v.11c12.15-.45,24.2,5.41,26.28,18.25v.1c.34,2.85-2.66,4.23-9,4.58s-9.77-.86-10-4.12-2.42-4.66-6.61-4.08h0l0-.24c-4.19.57-6.13,4.43-5.74,11.59.12,2.12.18,3.19.29,5.37.39,7.25,2.72,10.57,7.1,9.58Z"/><path class="cls-3" d="M233.51,375.6l-3.43,1.9-3.93,2.2c-1.52.86-3.22,1.83-5.07,2.91s-3.83,2.26-5.93,3.51l-3.21,2-3.3,2.1c-2.23,1.44-4.53,2.93-6.77,4.55-1.15.78-2.25,1.62-3.37,2.45-.55.42-1.13.82-1.67,1.25l-1.61,1.32c-.53.44-1.09.86-1.6,1.32l-1.51,1.38c-.48.47-1,.9-1.47,1.39l-1.37,1.42-.68.71,0,0,0,0,0,0-.09.11-.16.2-.34.41-1.33,1.61c-.46.54-.85,1.06-1.22,1.57l-1.15,1.52c-.76,1-1.45,2.11-2.17,3.12l-1.91,3.1c-1.19,2.05-2.23,4-3.11,5.92l-.65,1.38-.57,1.34c-.37.86-.69,1.7-1,2.49-.59,1.58-1,3-1.39,4.13s-.59,2.08-.73,2.7l-.2.9,0,.15a1.67,1.67,0,0,1-2,1.26,1.64,1.64,0,0,1-1.29-1.67v-.32l0-.82a29.94,29.94,0,0,1,.35-3.05c.09-.64.23-1.35.37-2.13s.35-1.61.58-2.48.47-1.83.8-2.79l.48-1.5.56-1.54a65.34,65.34,0,0,1,2.92-6.62c.59-1.14,1.24-2.28,1.91-3.46s1.42-2.31,2.23-3.49l1.24-1.76c.43-.6.86-1.19,1.29-1.71l1.31-1.63.33-.41.17-.2.08-.11.1-.11,0-.05.78-.83c.51-.56,1-1.11,1.55-1.67s1.1-1,1.65-1.54l1.68-1.51c.56-.49,1.15-.93,1.73-1.4l1.75-1.4c.58-.45,1.18-.87,1.78-1.3,1.18-.88,2.37-1.73,3.58-2.51,2.4-1.61,4.81-3.09,7.16-4.49l3.49-2,3.38-1.84c2.21-1.15,4.31-2.22,6.27-3.17s3.77-1.77,5.37-2.51,3-1.33,4.2-1.83,2.09-.85,2.73-1.1l1-.38a1.66,1.66,0,0,1,1.41,3Z"/><path class="cls-3" d="M319.22,288.19l-1.88,1.11-2.16,1.29c-.84.5-1.76,1.1-2.77,1.73s-2.1,1.33-3.24,2.08-2.34,1.54-3.54,2.41-2.44,1.75-3.66,2.68l-1.81,1.45-1.75,1.5c-.56.52-1.09,1.06-1.64,1.58s-1,1.08-1.51,1.62-.87,1.11-1.31,1.65l-.16.21s-.09.14-.14.2l-.32.49-.64.95c-.77,1.19-1.51,2.41-2.2,3.57s-1.28,2.28-1.86,3.31c-1.11,2.08-1.95,3.85-2.53,5.1l-.65,1.44-.21.48,0,.1A1.66,1.66,0,0,1,283,324a1.68,1.68,0,0,1-1-1.9l.15-.62c.09-.39.23-.95.43-1.65a54.14,54.14,0,0,1,2.05-5.7c.49-1.15,1.06-2.38,1.71-3.66s1.39-2.6,2.2-4l.6-1,.31-.49a2.4,2.4,0,0,1,.18-.28l.19-.26c.53-.69,1-1.45,1.6-2.08s1.13-1.32,1.75-1.92,1.24-1.18,1.87-1.75L297,297.1c.66-.51,1.32-1,2-1.51,1.34-1,2.66-1.88,4-2.72s2.6-1.59,3.83-2.31,2.41-1.33,3.5-1.9,2.11-1.06,3-1.49l2.35-1.09c.66-.29,1.18-.5,1.55-.65l.55-.22a1.65,1.65,0,0,1,2.16.91,1.68,1.68,0,0,1-.69,2.06Z"/><path class="cls-3" d="M380.28,258.8l-.45.23-1.29.66-2,1L374,262.14c-.93.52-1.93,1.11-3,1.73s-2.11,1.33-3.2,2.05-2.17,1.52-3.24,2.35L363,269.55l-1.48,1.36c-.45.48-.89,1-1.35,1.43s-.8,1-1.2,1.48l-.08.09,0,0v0h0s.07-.11,0-.05l-.15.22-.3.45-.59.87c-.32.54-.66,1-1,1.59s-.63,1.11-.91,1.67-.58,1.09-.84,1.62c-.52,1.08-1,2.13-1.41,3.09-.82,1.95-1.46,3.62-1.89,4.79l-.66,1.82,0,.11a1.66,1.66,0,0,1-3.22-.68l0-.58c0-.36.06-.89.15-1.56a39.46,39.46,0,0,1,1.08-5.45c.15-.56.31-1.14.49-1.74s.4-1.21.63-1.83a35.3,35.3,0,0,1,1.67-3.89c.31-.65.73-1.36,1.1-2.05.2-.36.39-.62.58-.93l.29-.46.15-.22.07-.1,0,0,.05-.06.09-.12c.5-.65,1-1.32,1.51-2s1.1-1.2,1.68-1.77l1.79-1.6,1.85-1.44c1.26-.89,2.53-1.72,3.79-2.44.61-.39,1.25-.7,1.86-1s1.23-.62,1.82-.9c1.18-.59,2.34-1,3.39-1.46s2.06-.76,2.93-1.05,1.66-.51,2.3-.69,1.15-.28,1.51-.37l.55-.12a1.67,1.67,0,0,1,1.09,3.13Z"/><path class="cls-3" d="M365.43,337l-.18,0-.47-.06a18.43,18.43,0,0,0-2-.11,17.13,17.13,0,0,0-3.22.34,19.91,19.91,0,0,0-2,.43q-1,.3-2.13.69c-.72.32-1.49.56-2.24,1l-1.15.57c-.39.21-.77.45-1.16.68s-.79.45-1.17.71l-1.16.82c-.8.53-1.55,1.18-2.33,1.8s-1.52,1.35-2.28,2l-.57.53-.15.14,0,0,0,0,0,0-.07.07-.29.31c-.36.39-.82.83-1.09,1.19-.62.72-1.25,1.56-1.86,2.43l-.87,1.32-.81,1.38a50.2,50.2,0,0,0-2.78,5.83c-.79,2-1.47,4-2.08,6a91,91,0,0,0-2.56,11.08c-.59,3.3-.94,6.08-1.13,8-.1,1-.18,1.74-.22,2.25l-.06.78v.06a1.66,1.66,0,0,1-3.31-.11v-.86c0-.55,0-1.35,0-2.36.08-2,.25-4.92.65-8.37A94.89,94.89,0,0,1,329,363.82a61.32,61.32,0,0,1,2-6.49,50.48,50.48,0,0,1,3-6.47l.91-1.56c.32-.52.66-1,1-1.53a32.8,32.8,0,0,1,2.24-2.95c.41-.52.77-.85,1.15-1.28l.29-.3.07-.08.07-.08h0l0,0,.16-.15.64-.59c.86-.77,1.66-1.58,2.58-2.26a28.14,28.14,0,0,1,2.68-2l1.35-.89c.46-.28.94-.52,1.39-.78s.91-.51,1.37-.73l1.39-.61c.89-.42,1.84-.68,2.7-1s1.76-.47,2.59-.65,1.62-.3,2.38-.33a22.3,22.3,0,0,1,3.94,0,15.75,15.75,0,0,1,2.54.45c.29.07.55.16.72.21l.22.08a1.66,1.66,0,0,1-1,3.17Z"/><path class="cls-3" d="M479.92,260.42l-1.33.05c-.88,0-2.18.14-3.83.29a106,106,0,0,0-13.56,2.18,83.36,83.36,0,0,0-18.13,6.29,59.71,59.71,0,0,0-9.18,5.49A50.56,50.56,0,0,0,425.8,282c-.64.66-1.17,1.4-1.75,2.1l-.43.54-.06.06,0,0s-.06.07,0,0l-.1.15-.21.29-.85,1.17c-1.12,1.56-2.32,3.11-3.31,4.64-2.09,3-4.05,6.18-5.88,9.24s-3.47,6.1-5,9c-.75,1.46-1.48,2.87-2.13,4.27s-1.32,2.73-1.9,4-1.15,2.55-1.66,3.75-1,2.34-1.42,3.42c-.88,2.16-1.59,4.06-2.16,5.62s-1,2.81-1.27,3.65l-.41,1.27,0,.09a1.66,1.66,0,0,1-3.2-.84l.29-1.42c.21-.91.51-2.23,1-3.89s1-3.67,1.78-5.94c.37-1.14.77-2.35,1.24-3.61s.95-2.59,1.49-4,1.12-2.8,1.76-4.25,1.31-3,2-4.49,1.48-3.08,2.3-4.66,1.69-3.16,2.58-4.78c1.8-3.23,3.81-6.46,6-9.72,1.08-1.67,2.22-3.17,3.35-4.74l.85-1.17.21-.29.11-.15.16-.19.48-.6c.66-.78,1.26-1.61,2-2.34a53.12,53.12,0,0,1,9.07-8.06,64.43,64.43,0,0,1,10.11-5.8,81.58,81.58,0,0,1,19.48-6c2.93-.53,5.63-.86,8-1.09s4.49-.31,6.22-.36,3.09,0,4,0l1.08,0,.37,0a1.66,1.66,0,0,1,0,3.31Z"/><path class="cls-3" d="M384.84,476.3a2,2,0,0,1-1.8-1.13c-.51-1-12.25-25.71.31-39.63,12.4-13.74,34.07-10.11,35-10a2,2,0,0,1-.69,3.94c-.2,0-20.43-3.39-31.33,8.69-10.75,11.92.2,35,.32,35.21a2,2,0,0,1-.93,2.67A1.94,1.94,0,0,1,384.84,476.3Z"/><path class="cls-3" d="M590.48,264.51h-.26l-.8,0c-.71,0-1.75,0-3.09,0a47.94,47.94,0,0,0-10.8,1.68,32.52,32.52,0,0,0-6.6,2.65,24.22,24.22,0,0,0-6.1,4.68,22.14,22.14,0,0,0-4.37,6.87,26.22,26.22,0,0,0-1.3,4.08c-.14.71-.35,1.4-.45,2.14L556.3,289l-.4,2.33-.34,2.3c-.21,1.54-.45,3.05-.62,4.58-.4,3.05-.69,6.06-.94,9-.11,1.46-.22,2.9-.32,4.31s-.15,2.78-.22,4.12-.1,2.66-.14,3.92-.05,2.49-.07,3.66,0,2.3,0,3.37,0,2.08,0,3c0,1.9.11,3.56.18,4.93s.12,2.43.18,3.16l.09,1.08v.07a1.65,1.65,0,0,1-3.28.41l-.2-1.17c-.11-.75-.29-1.84-.45-3.24s-.34-3.09-.51-5-.32-4.14-.41-6.55c0-1.2-.07-2.45-.1-3.74s0-2.64,0-4,.06-2.8.09-4.24.12-2.92.19-4.43c.19-3,.43-6.09.77-9.24.13-1.56.39-3.16.6-4.75l.33-2.39.39-2.35.39-2.34c.11-.83.34-1.66.51-2.49a31.13,31.13,0,0,1,1.59-4.87,26,26,0,0,1,5.51-8.4,27.9,27.9,0,0,1,7.58-5.47,34.42,34.42,0,0,1,7.73-2.71,45.25,45.25,0,0,1,11.93-1c1.44.06,2.57.18,3.34.28l.89.12.32.05a1.66,1.66,0,0,1-.35,3.29Z"/><path class="cls-3" d="M188.8,574.64l-.14-.36-.4-1c-.34-.88-.81-2.18-1.31-3.86a61.17,61.17,0,0,1-1.53-6.15,58.47,58.47,0,0,1-1-8.23,42.72,42.72,0,0,1,.63-10,31.81,31.81,0,0,1,1.51-5.43,29.1,29.1,0,0,1,2.74-5.35,23.81,23.81,0,0,1,4.11-4.77,13.41,13.41,0,0,1,1.23-1l.64-.49.32-.25.16-.12,0,0,.18-.12.08,0,1.21-.75c.21-.13.38-.25.63-.38l.77-.39,1.56-.76,1.49-.58a30.1,30.1,0,0,1,3-1c1-.31,2-.49,3-.73s2-.37,3-.55a83.17,83.17,0,0,1,12-.9c3.93,0,7.78.12,11.48.38,7.39.55,14.21,1.52,20,2.52,2.91.49,5.55,1,7.89,1.52s4.37,1,6.05,1.34,3,.74,3.87,1l1.37.37a1.66,1.66,0,0,1-.68,3.24h0l-1.36-.22-3.89-.58c-1.67-.26-3.71-.55-6-.86s-5-.61-7.86-.95-6-.63-9.3-.91-6.77-.52-10.36-.65-7.29-.21-11-.09a90,90,0,0,0-11.15,1c-.9.18-1.82.32-2.71.51s-1.78.39-2.63.66-1.71.49-2.51.82l-1.21.45-1,.49-.53.24a6.48,6.48,0,0,0-.59.35l-1.22.74-.86.65a7.87,7.87,0,0,0-.94.77l-.9.82-.81.88a8.61,8.61,0,0,0-.78.92c-.23.31-.51.6-.72.94a23.43,23.43,0,0,0-2.27,4.13,31.66,31.66,0,0,0-1.42,4.43,41.63,41.63,0,0,0-1,8.74,63.9,63.9,0,0,0,.38,7.63c.24,2.28.57,4.27.86,5.9s.59,2.9.8,3.76l.24,1,.09.32v0a1.66,1.66,0,0,1-3.14,1.07Z"/><path class="cls-3" d="M373,596l-.08-.27-.24-.85c-.19-.72-.46-1.78-.74-3.14s-.56-3-.8-4.94-.44-4.08-.51-6.46a65.1,65.1,0,0,1,.14-7.7c.1-1.36.2-2.77.42-4.19l.31-2.17c.13-.72.29-1.45.43-2.19l.46-2.23c.2-.73.4-1.48.6-2.23s.4-1.5.64-2.25.53-1.48.79-2.23.51-1.5.83-2.24.65-1.46,1-2.2l.49-1.1.24-.55,0-.07,0,0,.06-.11.07-.13.14-.25.54-1c.18-.33.36-.67.61-1.05a40.19,40.19,0,0,1,2.85-4.14,40.83,40.83,0,0,1,3.24-3.67,50.67,50.67,0,0,1,7.26-6,60.75,60.75,0,0,1,7.53-4.32,70.41,70.41,0,0,1,7.1-3c2.24-.81,4.33-1.42,6.19-1.92s3.5-.84,4.85-1.11,2.43-.42,3.17-.52l1.17-.15a1.66,1.66,0,0,1,.59,3.26l-.09,0-1,.24c-.67.17-1.67.45-2.93.82a92.75,92.75,0,0,0-10.23,3.68c-2.07.88-4.25,1.94-6.49,3.15a62.06,62.06,0,0,0-6.75,4.23,45.3,45.3,0,0,0-6.33,5.48,35.78,35.78,0,0,0-2.79,3.22,34.54,34.54,0,0,0-2.35,3.45,10.29,10.29,0,0,0-.54,1l-.54,1-.13.25-.07.13c0,.09,0-.08,0-.05l0,0,0,.06-.22.5-.45,1-.91,2c-.3.66-.51,1.36-.77,2l-.74,2c-.24.68-.41,1.37-.62,2.05s-.4,1.36-.61,2l-.47,2c-.16.67-.32,1.34-.46,2s-.23,1.34-.34,2-.26,1.31-.34,2l-.24,1.92c-.19,1.26-.25,2.51-.35,3.71s-.13,2.36-.19,3.48c-.07,2.24,0,4.3,0,6.13s.2,3.41.32,4.72.25,2.32.34,3l.11.76.05.28h0A1.66,1.66,0,0,1,373,596Z"/><path class="cls-3" d="M211,640.83l-.06-.13c0-.1-.14-.29-.21-.47a8.69,8.69,0,0,1-.51-1.67,9.38,9.38,0,0,1-.15-2.75,9.07,9.07,0,0,1,1.07-3.52,10.6,10.6,0,0,1,1.17-1.74A12.39,12.39,0,0,1,213.9,629a15.36,15.36,0,0,1,1.81-1.26,12.77,12.77,0,0,1,2-1l1-.43.13-.06h0l.11,0h.06l.24-.08.49-.15a1.47,1.47,0,0,1,.25-.08l.31-.07.64-.15c.45-.1.81-.13,1.22-.19a22.42,22.42,0,0,1,4.7-.07,35.91,35.91,0,0,1,8.58,2,56.43,56.43,0,0,1,6.86,2.94c1.93,1,3.49,1.91,4.57,2.57l1.23.81.45.3a1.66,1.66,0,0,1-1.66,2.86l-.06,0-.42-.21-1.26-.59c-1.08-.52-2.64-1.23-4.55-2-1-.39-2-.79-3.09-1.18s-2.26-.78-3.47-1.13-2.47-.66-3.74-.93a29.59,29.59,0,0,0-3.83-.52,17.18,17.18,0,0,0-3.67.08c-.27,0-.6.08-.82.14l-.37.08-.18,0-.24.07-.48.14-.25.07-.06,0,.09,0h0l-.1,0-.81.32c-.26.12-.55.2-.78.33s-.48.26-.72.37a10.06,10.06,0,0,0-1.29.79,3.82,3.82,0,0,0-.53.43c-.16.15-.36.27-.5.43a5.79,5.79,0,0,0-.76.92,5.29,5.29,0,0,0-.85,1.87,6.62,6.62,0,0,0-.22,1.67,11.06,11.06,0,0,0,.08,1.12l0,.24a.91.91,0,0,0,0,.12,1.66,1.66,0,0,1-3.05,1.28Z"/><path class="cls-3" d="M528.54,527.1s0-.38-.1-1.05-.13-1.68-.18-2.94-.08-2.8,0-4.56.13-3.75.31-5.93.52-4.53,1-7a52.92,52.92,0,0,1,2.09-7.81,32.86,32.86,0,0,1,1.73-4.07,24.52,24.52,0,0,1,2.49-4,22.41,22.41,0,0,1,1.64-1.91l0-.05.15-.15.1-.09.2-.18.39-.35a10.79,10.79,0,0,1,.93-.78c.34-.26.71-.57,1-.78l1-.67c.65-.44,1.31-.83,2-1.23a65.4,65.4,0,0,1,8-3.86c2.66-1.08,5.29-2,7.86-2.89s5.06-1.58,7.42-2.24,4.63-1.21,6.72-1.71c4.17-1,7.67-1.65,10.13-2.08,1.23-.22,2.2-.36,2.86-.47l1-.15a1.66,1.66,0,0,1,.76,3.22h0l-3.66,1.21c-2.34.76-5.69,1.85-9.67,3.21-2,.67-4.14,1.42-6.4,2.23s-4.63,1.67-7.05,2.63-4.91,1.93-7.36,3.05a78.36,78.36,0,0,0-7.14,3.64c-.55.34-1.1.68-1.62,1l-.76.54c-.27.18-.43.34-.65.5a5.9,5.9,0,0,0-.68.58l-.39.36-.19.18-.1.09,0,0,.08-.08,0,0a13.41,13.41,0,0,0-1.1,1.26,26.8,26.8,0,0,0-3.45,6.28,57.87,57.87,0,0,0-2.24,6.83c-.62,2.25-1.06,4.43-1.49,6.45s-.71,3.9-1,5.56-.48,3.13-.66,4.34l-.5,3.78v0a1.68,1.68,0,0,1-3.32,0Z"/><path class="cls-3" d="M670.56,551.47h0a1.65,1.65,0,0,0-.79-.29,1.71,1.71,0,0,0-1.38.54,1.34,1.34,0,0,0-.16.22l0,0h0l0,.08c0,.06,0,0,0,0l.08-.29c.09-.29.22-.73.38-1.3.33-1.16.81-2.86,1.41-5,1.22-4.33,3-10.51,5.06-17.94,1.06-3.7,2.14-7.74,3.26-12,.26-1.05.53-2.12.81-3.2s.53-2.23.81-3.36c.51-2.22,1.19-4.66,1.93-7a88.52,88.52,0,0,1,5.85-14.35c.64-1.17,1.24-2.37,2-3.51l1.07-1.73,1.17-1.69c.75-1.14,1.64-2.21,2.49-3.3.43-.55.92-1.05,1.37-1.58s.92-1.05,1.43-1.53a41.11,41.11,0,0,1,6.51-5.44l1.82-1.12c.61-.37,1.27-.67,1.9-1l.47-.24.24-.12.12-.06.3-.13,0,0,.9-.34.89-.34.44-.17c.15-.06.38-.11.56-.16.77-.2,1.55-.4,2.32-.58a8.31,8.31,0,0,1,1.1-.2l1.06-.13a31.36,31.36,0,0,1,4.18-.29c1.38-.05,2.72.11,4.06.18s2.63.34,3.91.56a54,54,0,0,1,25.11,11.91l1.15,1,.56.49.52.53,2,2.06c.64.69,1.19,1.43,1.75,2.11s1.11,1.37,1.54,2c1.86,2.53,3.46,4.78,4.75,6.64s2.29,3.35,3,4.39c.34.52.59.94.77,1.24l.24.41.06.13.07.15a2.19,2.19,0,0,1,.1.34v.08a2,2,0,0,1,0,.23,1.63,1.63,0,0,1-.22.84,1.5,1.5,0,0,1-.41.47,1.66,1.66,0,1,1-2-2.6,1.35,1.35,0,0,0-.41.47,1.59,1.59,0,0,0-.22.83,1.69,1.69,0,0,0,0,.23v.08a1.17,1.17,0,0,0,.08.29l0,.13-.15-.19-.84-1-3.42-3.9L756.75,488c-.52-.62-1-1.15-1.6-1.71s-1.08-1.15-1.69-1.71l-1.9-1.67-.49-.44-.53-.39-1.08-.81a52.27,52.27,0,0,0-10.14-5.81,53.36,53.36,0,0,0-12.46-3.6c-1.1-.15-2.21-.25-3.33-.37l-1.67-.05a15.54,15.54,0,0,0-1.67,0,25.46,25.46,0,0,0-3.29.26l-.81.11a4.71,4.71,0,0,0-.76.14c-.45.12-.9.23-1.36.33-.13,0-.22,0-.36.09l-.45.18-.89.34-.88.35-.06,0,.19-.08-.1.05-.18.1-.37.19c-.5.28-1,.51-1.49.81l-1.44.91a34.21,34.21,0,0,0-5.34,4.4,51.57,51.57,0,0,0-8.39,11.53,82.63,82.63,0,0,0-5.73,13.05c-.74,2.2-1.47,4.31-2.1,6.59-.33,1.12-.64,2.22-1,3.31s-.66,2.2-1,3.28c-1.32,4.28-2.72,8.24-4,11.91s-2.53,7-3.62,9.94-2.11,5.51-2.93,7.62-1.51,3.74-2,4.87l-.54,1.3-.17.37-.09.19,0,.11v0l0,0a2.68,2.68,0,0,1-.17.23,1.68,1.68,0,0,1-1.38.54,1.63,1.63,0,0,1-.8-.28h0l-.63-1.6a1.38,1.38,0,0,1,2.51-1.13Z"/><path class="cls-3" d="M693.14,354.51l-.5-1.5c-.33-1-.8-2.41-1.33-4.25-1.09-3.67-2.54-8.95-3.82-15.42-.66-3.23-1.27-6.76-1.73-10.53a96.91,96.91,0,0,1-.84-12,49.33,49.33,0,0,1,1.47-13.24,30.62,30.62,0,0,1,1.14-3.43,22.84,22.84,0,0,1,1.78-3.38c.18-.27.34-.55.53-.82l.65-.79a9.79,9.79,0,0,1,1.4-1.49l.78-.69.2-.17.1-.09,0,0,.14-.1.33-.23c.47-.31.85-.6,1.39-.93s1.12-.67,1.68-1l1.66-.81,1.73-.7c.58-.2,1.18-.37,1.77-.56a26.78,26.78,0,0,1,7.23-1A39.56,39.56,0,0,1,722.22,284a76.3,76.3,0,0,1,11,5.12c3.35,1.83,6.38,3.74,9.14,5.53s5.22,3.52,7.38,5.06,4,2.92,5.56,4.05,2.71,2.06,3.52,2.67l1.24.95a1.66,1.66,0,0,1-1.86,2.74h0L753.1,307l-5.82-3.53c-2.25-1.36-4.81-2.85-7.59-4.46s-5.84-3.25-9.09-4.88a81.51,81.51,0,0,0-10.39-4.36,34.38,34.38,0,0,0-11.23-2,20.23,20.23,0,0,0-5.49.78l-1.32.43-1.28.52-1.25.63-1.12.66a6,6,0,0,0-.64.43l-.67.46-.33.24c-.1.07.08-.07.06,0l0,0,0,.05-.11.1-.44.38a4.81,4.81,0,0,0-.82.86l-.39.46c-.13.16-.23.36-.35.53a17,17,0,0,0-1.25,2.32,27.49,27.49,0,0,0-.9,2.65,48.49,48.49,0,0,0-1.49,11.58c-.07,3.9.1,7.73.38,11.36s.71,7.09,1.13,10.27c.88,6.35,1.83,11.65,2.54,15.34s1.17,5.78,1.17,5.78v0a1.65,1.65,0,0,1-1.26,2A1.67,1.67,0,0,1,693.14,354.51Z"/></svg>